<svg width="149" height="37" viewBox="0 0 149 37" fill="none" xmlns="http://www.w3.org/2000/svg">
<path d="M5.08694 18.691C2.96446 18.691 1.24359 20.4118 1.24359 22.5343C1.24359 24.6587 2.96446 26.3796 5.08694 26.3796C7.21135 26.3796 8.93222 24.6587 8.93222 22.5343C8.93222 20.4118 7.21135 18.691 5.08694 18.691Z" fill="white"/>
<path d="M5.67092 32.4385C4.79788 32.4385 4.0878 33.1467 4.0878 34.0217C4.0878 34.8947 4.79788 35.6048 5.67092 35.6048C6.54591 35.6048 7.25405 34.8947 7.25405 34.0217C7.25405 33.1467 6.54591 32.4385 5.67092 32.4385Z" fill="white"/>
<path d="M16.6577 0.122223C11.4117 0.122223 7.16092 4.37493 7.16092 9.61903C7.16092 14.8651 11.4117 19.1178 16.6577 19.1178C21.9038 19.1178 26.1565 14.8651 26.1565 9.61903C26.1565 4.37493 21.9038 0.122223 16.6577 0.122223Z" fill="white"/>
<path d="M16.7159 22.6449C13.0938 22.6449 10.1564 25.5803 10.1564 29.2025C10.1564 32.8246 13.0938 35.76 16.7159 35.76C20.3381 35.76 23.2735 32.8246 23.2735 29.2025C23.2735 25.5803 20.3381 22.6449 16.7159 22.6449Z" fill="white"/>
<path d="M33.9184 28.017H36.3028L40.8096 17.7733H40.8348L42.1852 28.017H44.5463L50.1609 15.8468H48.2344L43.6305 26.2341H43.6053L42.2317 15.8468H39.9191L35.3405 26.2089H35.3152L33.9417 15.8468H32.0869L33.9184 28.017Z" fill="white"/>
<path d="M55.5312 28.4516C58.0863 28.4516 60.4241 27.1498 61.4601 25.1496L59.9663 24.3541C59.1708 25.7762 57.5081 26.8122 55.6049 26.8122C53.1701 26.8122 51.7247 25.1496 51.8683 22.5945H61.4854C61.6056 22.1133 61.7007 21.1956 61.7007 20.6175C61.7007 17.5094 59.7975 15.4122 56.7612 15.4122C52.8325 15.4122 50.0368 18.9548 50.0368 23.0038C50.0368 26.2574 52.1826 28.4516 55.5312 28.4516ZM52.1573 21.0288C52.6637 18.6657 54.4719 17.0516 56.5206 17.0516C58.7615 17.0516 59.943 18.6425 59.846 21.0288H52.1573Z" fill="white"/>
<path d="M69.0258 28.4516C72.9061 28.4516 75.822 24.812 75.822 20.666C75.822 17.5327 73.8936 15.4122 70.8806 15.4122C69.0724 15.4122 67.4097 16.2561 66.2049 17.75H66.1817L67.4097 10.3039H65.5783L62.7826 28.017H64.3502L64.9031 25.9683H64.9283C65.6268 27.4874 67.0489 28.4516 69.0258 28.4516ZM68.8318 26.8122C66.7346 26.8122 65.4095 25.2699 65.4095 23.0756C65.4095 20.0878 67.6038 17.0749 70.5682 17.0749C72.6888 17.0749 74.0139 18.6172 74.0139 20.8115C74.0139 23.776 71.8448 26.8122 68.8318 26.8122Z" fill="white"/>
<path d="M76.6614 28.017H78.4696L81.2652 10.3039H79.4571L76.6614 28.017Z" fill="white"/>
<path d="M84.3722 13.4837C85.1928 13.4837 85.8195 12.9056 85.8195 11.9898C85.8195 11.2914 85.3364 10.8335 84.5662 10.8335C83.7455 10.8335 83.1441 11.435 83.1441 12.3041C83.1441 13.0026 83.6252 13.4837 84.3722 13.4837ZM81.0468 28.017H82.855L84.7835 15.8468H82.9753L81.0468 28.017Z" fill="white"/>
<path d="M94.3504 33.0788H96.1818L98.9038 15.8468H97.3149L96.7833 17.9188H96.76C96.0363 16.3997 94.6394 15.4122 92.6625 15.4122C88.7823 15.4122 85.843 19.0751 85.843 23.1978C85.843 26.3292 87.7948 28.4516 90.7825 28.4516C92.614 28.4516 94.2767 27.6077 95.4834 26.1138H95.5067L94.3504 33.0788ZM91.0968 26.787C88.9743 26.787 87.6493 25.2446 87.6493 23.0756C87.6493 20.0878 89.8435 17.0749 92.8546 17.0749C94.9518 17.0749 96.2769 18.594 96.2769 20.8115C96.2769 23.776 94.0846 26.787 91.0968 26.787Z" fill="white"/>
<path d="M103.481 28.4516C105.361 28.4516 106.88 27.728 108.036 26.3777H108.059L107.939 28.017H109.578L111.507 15.8468H109.699L108.566 22.9553C108.205 25.2446 106.253 26.884 104.035 26.884C102.299 26.884 101.432 25.751 101.746 23.8245L102.999 15.8468H101.191L99.9147 23.871C99.4549 26.7152 100.805 28.4516 103.481 28.4516Z" fill="white"/>
<path d="M117.865 28.4516C120.42 28.4516 122.758 27.1498 123.794 25.1496L122.3 24.3541C121.505 25.7762 119.842 26.8122 117.939 26.8122C115.504 26.8122 114.059 25.1496 114.202 22.5945H123.819C123.94 22.1133 124.035 21.1956 124.035 20.6175C124.035 17.5094 122.132 15.4122 119.095 15.4122C115.167 15.4122 112.371 18.9548 112.371 23.0038C112.371 26.2574 114.517 28.4516 117.865 28.4516ZM114.491 21.0288C114.998 18.6657 116.806 17.0516 118.855 17.0516C121.096 17.0516 122.277 18.6425 122.18 21.0288H114.491Z" fill="white"/>
<path d="M126.516 28.017H128.322L130.01 17.3154H134.998L135.215 15.8468H130.25L130.565 13.7728C130.805 12.3507 131.698 11.5087 132.877 11.5087C134.179 11.5087 134.903 12.3759 134.951 13.6525L136.614 13.0996C136.54 11.2914 135.192 9.91782 133.046 9.91782C130.708 9.91782 129.142 11.2662 128.805 13.5575L128.419 15.8468H125.84L125.6 17.3154H128.201L126.516 28.017Z" fill="white"/>
<path d="M139.021 33.5114C142.564 33.5114 145.094 31.4879 145.649 27.9685L147.552 15.8468H145.746L144.516 23.582C144.178 25.7277 142.25 27.2934 140.201 27.2934C138.346 27.2934 137.454 25.9683 137.768 23.9913L139.045 15.8468H137.236L135.96 23.871C135.502 26.8122 137.021 28.9328 139.937 28.9328C141.431 28.9328 143.022 28.2091 143.986 26.9092H144.009L143.866 27.8483C143.431 30.3316 141.623 31.874 138.996 31.874C137.044 31.874 135.694 30.9097 135.236 29.2936L133.574 30.2346C134.152 32.2348 136.105 33.5114 139.021 33.5114Z" fill="white"/>
</svg>
