<svg width="48" height="68" viewBox="0 0 48 68" fill="none" xmlns="http://www.w3.org/2000/svg">
<path d="M7.26924 35.1206C3.25483 35.1206 0 38.3754 0 42.3898C0 46.4079 3.25483 49.6627 7.26924 49.6627C11.2873 49.6627 14.5421 46.4079 14.5421 42.3898C14.5421 38.3754 11.2873 35.1206 7.26924 35.1206Z" fill="black"/>
<path d="M8.37375 61.1225C6.72249 61.1225 5.37946 62.4619 5.37946 64.1168C5.37946 65.7681 6.72249 67.1111 8.37375 67.1111C10.0287 67.1111 11.368 65.7681 11.368 64.1168C11.368 62.4619 10.0287 61.1225 8.37375 61.1225Z" fill="black"/>
<path d="M29.154 0C19.2317 0 11.1919 8.0435 11.1919 17.9621C11.1919 27.8844 19.2317 35.9279 29.154 35.9279C39.0763 35.9279 47.1198 27.8844 47.1198 17.9621C47.1198 8.0435 39.0763 0 29.154 0Z" fill="black"/>
<path d="M29.2641 42.599C22.4132 42.599 16.8576 48.1509 16.8576 55.0018C16.8576 61.8527 22.4132 67.4047 29.2641 67.4047C36.115 67.4047 41.6669 61.8527 41.6669 55.0018C41.6669 48.1509 36.115 42.599 29.2641 42.599Z" fill="black"/>
</svg>
